<?xml version="1.0" encoding="utf-8"?>
<!-- Generator: Adobe Illustrator 22.0.1, SVG Export Plug-In . SVG Version: 6.00 Build 0)  -->
<svg version="1.1" id="Layer_1" xmlns="http://www.w3.org/2000/svg" xmlns:xlink="http://www.w3.org/1999/xlink" x="0px" y="0px"
	 viewBox="0 0 1000 972.2" style="enable-background:new 0 0 1000 972.2;" xml:space="preserve">
<path d="M891.7,392.1c1.4,85.4-46.9,154.3-49.8,158.4c42.7-47,68.5-99.2,68.5-160.9c0-88.3-44.7-167.7-124.9-221.6l-13.3-9.5
	L646.1,391.2l177.7,308.5l42.5,272.5L661.5,771.9L502.2,523.1L361.4,768c-62.1-15.8-120-41.5-170.6-74.5l193.9-301L235,154
	l-12.3,8.4C142.5,216.3,90.7,294.7,90.6,383c0,61.7,25.9,115.4,68.6,162.3c-2.8-4.2-49-73.8-47.5-159.3
	c0.9-54.1,31.8-131,114.9-191.1l123.9,197.3L167,677c-21.6-15.9-41.7-33.3-59.7-51.8C40.3,556.7,0,472.4,0,383
	C-0.3,203.3,150.5,48.7,360.2,0l144.1,253L656.1,4c201.3,52.9,344.2,204,343.9,379c0,114-60.1,217.4-157.9,290.7L679.2,390.8
	l102.7-189.4C865,261.4,890.9,338,891.7,392.1z"/>
</svg>
